<?xml version="1.0" encoding="UTF-8" standalone="no"?>
<!-- Created with Inkscape (http://www.inkscape.org/) -->

<svg
   xmlns:dc="http://purl.org/dc/elements/1.1/"
   xmlns:cc="http://creativecommons.org/ns#"
   xmlns:rdf="http://www.w3.org/1999/02/22-rdf-syntax-ns#"
   xmlns:svg="http://www.w3.org/2000/svg"
   xmlns="http://www.w3.org/2000/svg"
   xmlns:sodipodi="http://sodipodi.sourceforge.net/DTD/sodipodi-0.dtd"
   xmlns:inkscape="http://www.inkscape.org/namespaces/inkscape"
   width="12.745331mm"
   height="8.7312498mm"
   viewBox="0 0 12.745331 8.7312498"
   version="1.1"
   id="svg8"
   inkscape:version="0.92.3 (2405546, 2018-03-11)"
   sodipodi:docname="metechnologieslogo.svg">
  <defs
     id="defs2" />
  <sodipodi:namedview
     id="base"
     pagecolor="#ffffff"
     bordercolor="#666666"
     borderopacity="1.0"
     inkscape:pageopacity="0.0"
     inkscape:pageshadow="2"
     inkscape:zoom="11.313709"
     inkscape:cx="65.027135"
     inkscape:cy="20.984445"
     inkscape:document-units="mm"
     inkscape:current-layer="layer1"
     showgrid="false"
     inkscape:window-width="1916"
     inkscape:window-height="1986"
     inkscape:window-x="1906"
     inkscape:window-y="0"
     inkscape:window-maximized="0" />
  <metadata
     id="metadata5">
    <rdf:RDF>
      <cc:Work
         rdf:about="">
        <dc:format>image/svg+xml</dc:format>
        <dc:type
           rdf:resource="http://purl.org/dc/dcmitype/StillImage" />
        <dc:title></dc:title>
      </cc:Work>
    </rdf:RDF>
  </metadata>
  <g
     inkscape:label="Layer 1"
     inkscape:groupmode="layer"
     id="layer1"
     transform="translate(-345.51729,-327.65538)">
    <g
       id="g21"
       transform="translate(-3.5546847,2.1047475)">
      <path
         style="fill:#0c4f87;stroke-width:0.26458332"
         d="m 349.08684,333.95115 c -0.0761,-0.82645 0.1288,-1.49122 0.87687,-2.84427 1.19626,-2.16371 3.46163,-5.55625 3.71019,-5.55625 0.11949,0 0.34465,0.2796 0.50035,0.62134 0.22426,0.49218 0.13853,1.08337 -0.41242,2.84427 -0.38254,1.22261 -0.76788,2.46041 -0.8563,2.75065 -0.0884,0.29025 0.42732,-0.24553 1.14612,-1.19062 0.7188,-0.94509 1.87659,-2.46368 2.57286,-3.37466 2.00619,-2.6248 2.44384,-1.44097 0.73676,1.99292 -0.55904,1.12455 -1.29533,2.72925 -1.63618,3.566 -0.34086,0.83674 -0.71689,1.52135 -0.83564,1.52135 -0.46716,0 -0.17619,-1.68667 0.57786,-3.34969 0.43656,-0.96282 0.79375,-1.81002 0.79375,-1.88266 0,-0.23187 -1.60151,1.8687 -2.72149,3.56954 -0.84037,1.27622 -1.16051,1.58002 -1.42964,1.35666 -0.45717,-0.37942 -0.4172,-1.29123 0.15239,-3.47562 0.57631,-2.21017 0.30168,-1.97708 -1.57221,1.33438 -0.76171,1.34607 -1.4272,2.44739 -1.47886,2.44739 -0.0517,0 -0.10765,-0.14882 -0.12441,-0.33073 z m 8.49713,-0.19843 c -0.93436,-0.93437 -0.57352,-2.67906 0.86188,-4.16719 0.98296,-1.01907 2.08375,-1.14453 2.6721,-0.30454 0.86595,1.23631 -0.63601,3.09787 -2.21894,2.7502 -0.80383,-0.17655 -0.82115,-0.16002 -0.73836,0.70422 0.0746,0.77818 0.18571,0.89481 0.92087,0.96615 0.66542,0.0646 1.02998,-0.11276 1.78594,-0.86872 0.6169,-0.6169 0.94985,-0.80764 0.94985,-0.54415 0,0.52429 -0.89507,1.41505 -1.74758,1.73918 -1.04415,0.39698 -1.9094,0.3012 -2.48576,-0.27515 z m 2.16834,-2.82763 c 0.7132,-0.68329 1.00674,-1.67029 0.49676,-1.67029 -0.36143,0 -1.86955,1.90552 -1.71107,2.16195 0.216,0.34949 0.42441,0.26511 1.21431,-0.49166 z"
         id="path23"
         inkscape:connector-curvature="0" />
    </g>
  </g>
</svg>
