<svg version="1.1" width="48.1713" height="33" viewBox="0 0 12.7453 8.73125" xmlns="http://www.w3.org/2000/svg" xmlns:xlink="http://www.w3.org/1999/xlink" id="svg8" overflow="hidden"><style>
.MsftOfcThm_Background1_Fill {
 fill:#FFFFFF; 
}
</style>
<defs id="defs2"></defs><g id="layer1" transform="matrix(1,0,0,1,-345.517,-327.655)"><g id="g21" transform="matrix(1,0,0,1,-3.55468,2.10475)"><path d=" M 349.087 333.951 C 349.011 333.125 349.216 332.46 349.964 331.107 C 351.16 328.943 353.425 325.551 353.674 325.551 C 353.793 325.551 354.019 325.83 354.174 326.172 C 354.398 326.664 354.313 327.255 353.762 329.016 C 353.379 330.239 352.994 331.477 352.906 331.767 C 352.817 332.057 353.333 331.521 354.052 330.576 C 354.77 329.631 355.928 328.113 356.625 327.202 C 358.631 324.577 359.068 325.761 357.361 329.195 C 356.802 330.319 356.066 331.924 355.725 332.761 C 355.384 333.597 355.008 334.282 354.889 334.282 C 354.422 334.282 354.713 332.595 355.467 330.932 C 355.904 329.969 356.261 329.122 356.261 329.05 C 356.261 328.818 354.66 330.918 353.54 332.619 C 352.699 333.895 352.379 334.199 352.11 333.976 C 351.653 333.596 351.693 332.685 352.262 330.5 C 352.839 328.29 352.564 328.523 350.69 331.835 C 349.928 333.181 349.263 334.282 349.211 334.282 C 349.16 334.282 349.104 334.133 349.087 333.951 Z M 357.584 333.753 C 356.65 332.818 357.01 331.074 358.446 329.586 C 359.429 328.566 360.53 328.441 361.118 329.281 C 361.984 330.517 360.482 332.379 358.899 332.031 C 358.095 331.855 358.078 331.871 358.161 332.735 C 358.235 333.514 358.346 333.63 359.082 333.702 C 359.747 333.766 360.112 333.589 360.867 332.833 C 361.484 332.216 361.817 332.025 361.817 332.289 C 361.817 332.813 360.922 333.704 360.07 334.028 C 359.026 334.425 358.16 334.329 357.584 333.753 Z M 359.752 330.925 C 360.466 330.242 360.759 329.255 360.249 329.255 C 359.888 329.255 358.38 331.16 358.538 331.417 C 358.754 331.766 358.962 331.682 359.752 330.925 Z" id="path23" stroke="none" stroke-width="0.264583" stroke-dasharray="" stroke-dashoffset="1" fill="#FFFFFF" fill-opacity="1"/></g></g></svg>